<mxfile host="65bd71144e">
    <diagram id="ppkrh9pIyIqRoQHjiDVh" name="Page-1">
        <mxGraphModel dx="2041.5" dy="678" grid="1" gridSize="10" guides="1" tooltips="1" connect="1" arrows="1" fold="1" page="1" pageScale="1.5" pageWidth="827" pageHeight="1169" math="0" shadow="0">
            <root>
                <mxCell id="0"/>
                <mxCell id="1" parent="0"/>
                <mxCell id="v1f8EHenCg5GDuktwgVY-2" value="Refined Corpus" style="swimlane;fontStyle=0;childLayout=stackLayout;horizontal=1;startSize=30;horizontalStack=0;resizeParent=1;resizeParentMax=0;resizeLast=0;collapsible=1;marginBottom=0;" parent="1" vertex="1">
                    <mxGeometry x="80" y="370" width="140" height="120" as="geometry"/>
                </mxCell>
                <mxCell id="v1f8EHenCg5GDuktwgVY-3" value="Passage 1" style="text;strokeColor=none;fillColor=none;align=left;verticalAlign=middle;spacingLeft=4;spacingRight=4;overflow=hidden;points=[[0,0.5],[1,0.5]];portConstraint=eastwest;rotatable=0;" parent="v1f8EHenCg5GDuktwgVY-2" vertex="1">
                    <mxGeometry y="30" width="140" height="30" as="geometry"/>
                </mxCell>
                <mxCell id="v1f8EHenCg5GDuktwgVY-4" value="Passage 2" style="text;strokeColor=none;fillColor=none;align=left;verticalAlign=middle;spacingLeft=4;spacingRight=4;overflow=hidden;points=[[0,0.5],[1,0.5]];portConstraint=eastwest;rotatable=0;" parent="v1f8EHenCg5GDuktwgVY-2" vertex="1">
                    <mxGeometry y="60" width="140" height="30" as="geometry"/>
                </mxCell>
                <mxCell id="v1f8EHenCg5GDuktwgVY-5" value="..." style="text;strokeColor=none;fillColor=none;align=left;verticalAlign=middle;spacingLeft=4;spacingRight=4;overflow=hidden;points=[[0,0.5],[1,0.5]];portConstraint=eastwest;rotatable=0;" parent="v1f8EHenCg5GDuktwgVY-2" vertex="1">
                    <mxGeometry y="90" width="140" height="30" as="geometry"/>
                </mxCell>
                <mxCell id="v1f8EHenCg5GDuktwgVY-6" value="Compute Contextual Word Embeddings" style="shape=process;whiteSpace=wrap;html=1;backgroundOutline=1;" parent="1" vertex="1">
                    <mxGeometry x="310" y="390" width="120" height="90" as="geometry"/>
                </mxCell>
                <mxCell id="v1f8EHenCg5GDuktwgVY-8" value="" style="endArrow=classic;html=1;rounded=0;exitX=1;exitY=0.5;exitDx=0;exitDy=0;entryX=0;entryY=0.25;entryDx=0;entryDy=0;" parent="1" source="v1f8EHenCg5GDuktwgVY-3" target="v1f8EHenCg5GDuktwgVY-6" edge="1">
                    <mxGeometry width="50" height="50" relative="1" as="geometry">
                        <mxPoint x="590" y="460" as="sourcePoint"/>
                        <mxPoint x="640" y="410" as="targetPoint"/>
                    </mxGeometry>
                </mxCell>
                <mxCell id="v1f8EHenCg5GDuktwgVY-9" value="" style="endArrow=classic;html=1;rounded=0;exitX=1;exitY=0.5;exitDx=0;exitDy=0;entryX=0;entryY=0.5;entryDx=0;entryDy=0;" parent="1" source="v1f8EHenCg5GDuktwgVY-4" target="v1f8EHenCg5GDuktwgVY-6" edge="1">
                    <mxGeometry width="50" height="50" relative="1" as="geometry">
                        <mxPoint x="230" y="415" as="sourcePoint"/>
                        <mxPoint x="260" y="422.5" as="targetPoint"/>
                    </mxGeometry>
                </mxCell>
                <mxCell id="v1f8EHenCg5GDuktwgVY-10" value="" style="endArrow=classic;html=1;rounded=0;exitX=1;exitY=0.5;exitDx=0;exitDy=0;entryX=0;entryY=0.75;entryDx=0;entryDy=0;" parent="1" source="v1f8EHenCg5GDuktwgVY-5" target="v1f8EHenCg5GDuktwgVY-6" edge="1">
                    <mxGeometry width="50" height="50" relative="1" as="geometry">
                        <mxPoint x="240" y="425" as="sourcePoint"/>
                        <mxPoint x="240" y="450" as="targetPoint"/>
                    </mxGeometry>
                </mxCell>
                <mxCell id="v1f8EHenCg5GDuktwgVY-15" value="Analyses" style="swimlane;horizontal=0;" parent="1" vertex="1">
                    <mxGeometry x="510" y="70" width="250" height="500" as="geometry"/>
                </mxCell>
                <mxCell id="v1f8EHenCg5GDuktwgVY-11" value="Clustering" style="shape=process;whiteSpace=wrap;html=1;backgroundOutline=1;" parent="v1f8EHenCg5GDuktwgVY-15" vertex="1">
                    <mxGeometry x="65" y="50" width="120" height="60" as="geometry"/>
                </mxCell>
                <mxCell id="v1f8EHenCg5GDuktwgVY-13" value="Visualization" style="shape=process;whiteSpace=wrap;html=1;backgroundOutline=1;" parent="v1f8EHenCg5GDuktwgVY-15" vertex="1">
                    <mxGeometry x="65" y="280" width="120" height="60" as="geometry"/>
                </mxCell>
                <mxCell id="v1f8EHenCg5GDuktwgVY-12" value="Semantic Shift Detection&lt;br&gt;(per period, provenance ...)" style="shape=process;whiteSpace=wrap;html=1;backgroundOutline=1;" parent="v1f8EHenCg5GDuktwgVY-15" vertex="1">
                    <mxGeometry x="65" y="160" width="120" height="60" as="geometry"/>
                </mxCell>
                <mxCell id="v1f8EHenCg5GDuktwgVY-16" value="..." style="shape=process;whiteSpace=wrap;html=1;backgroundOutline=1;" parent="v1f8EHenCg5GDuktwgVY-15" vertex="1">
                    <mxGeometry x="65" y="400" width="120" height="60" as="geometry"/>
                </mxCell>
                <mxCell id="v1f8EHenCg5GDuktwgVY-17" value="Text Corpus Researcher" style="shape=umlActor;verticalLabelPosition=bottom;verticalAlign=top;html=1;outlineConnect=0;" parent="1" vertex="1">
                    <mxGeometry x="400" y="730" width="130" height="160" as="geometry"/>
                </mxCell>
                <mxCell id="v1f8EHenCg5GDuktwgVY-18" value="Text Corpus" style="shape=internalStorage;whiteSpace=wrap;html=1;backgroundOutline=1;" parent="1" vertex="1">
                    <mxGeometry x="110" y="710" width="80" height="80" as="geometry"/>
                </mxCell>
                <mxCell id="v1f8EHenCg5GDuktwgVY-24" value="Query&lt;br&gt;by text, metadata" style="ellipse;whiteSpace=wrap;html=1;" parent="1" vertex="1">
                    <mxGeometry x="260" y="690" width="80" height="55" as="geometry"/>
                </mxCell>
                <mxCell id="v1f8EHenCg5GDuktwgVY-25" value="" style="endArrow=classic;html=1;rounded=0;exitX=0.25;exitY=0.1;exitDx=0;exitDy=0;exitPerimeter=0;entryX=1;entryY=0.5;entryDx=0;entryDy=0;" parent="1" source="v1f8EHenCg5GDuktwgVY-17" target="v1f8EHenCg5GDuktwgVY-24" edge="1">
                    <mxGeometry width="50" height="50" relative="1" as="geometry">
                        <mxPoint x="270" y="460" as="sourcePoint"/>
                        <mxPoint x="320" y="410" as="targetPoint"/>
                    </mxGeometry>
                </mxCell>
                <mxCell id="v1f8EHenCg5GDuktwgVY-28" value="" style="endArrow=classic;html=1;rounded=0;entryX=1;entryY=0.163;entryDx=0;entryDy=0;entryPerimeter=0;exitX=0;exitY=0.5;exitDx=0;exitDy=0;" parent="1" source="v1f8EHenCg5GDuktwgVY-24" target="v1f8EHenCg5GDuktwgVY-18" edge="1">
                    <mxGeometry width="50" height="50" relative="1" as="geometry">
                        <mxPoint x="240" y="775" as="sourcePoint"/>
                        <mxPoint x="290" y="725" as="targetPoint"/>
                    </mxGeometry>
                </mxCell>
                <mxCell id="v1f8EHenCg5GDuktwgVY-29" value="" style="endArrow=classic;html=1;rounded=0;exitX=0.5;exitY=0;exitDx=0;exitDy=0;entryX=0.5;entryY=1;entryDx=0;entryDy=0;" parent="1" source="v1f8EHenCg5GDuktwgVY-18" target="v1f8EHenCg5GDuktwgVY-2" edge="1">
                    <mxGeometry width="50" height="50" relative="1" as="geometry">
                        <mxPoint x="270" y="460" as="sourcePoint"/>
                        <mxPoint x="320" y="410" as="targetPoint"/>
                    </mxGeometry>
                </mxCell>
                <mxCell id="v1f8EHenCg5GDuktwgVY-36" value="" style="endArrow=classic;html=1;rounded=0;entryX=-0.012;entryY=0.692;entryDx=0;entryDy=0;entryPerimeter=0;exitX=1;exitY=0.5;exitDx=0;exitDy=0;" parent="1" source="v1f8EHenCg5GDuktwgVY-6" target="v1f8EHenCg5GDuktwgVY-15" edge="1">
                    <mxGeometry width="50" height="50" relative="1" as="geometry">
                        <mxPoint x="270" y="580" as="sourcePoint"/>
                        <mxPoint x="320" y="530" as="targetPoint"/>
                    </mxGeometry>
                </mxCell>
                <mxCell id="v1f8EHenCg5GDuktwgVY-37" value="" style="endArrow=classic;html=1;rounded=0;edgeStyle=orthogonalEdgeStyle;entryX=1;entryY=0.3333333333333333;entryDx=0;entryDy=0;entryPerimeter=0;startArrow=classic;startFill=1;exitX=0.5;exitY=1;exitDx=0;exitDy=0;" parent="1" source="v1f8EHenCg5GDuktwgVY-15" target="v1f8EHenCg5GDuktwgVY-17" edge="1">
                    <mxGeometry width="50" height="50" relative="1" as="geometry">
                        <mxPoint x="510" y="510" as="sourcePoint"/>
                        <mxPoint x="320" y="530" as="targetPoint"/>
                    </mxGeometry>
                </mxCell>
                <mxCell id="v1f8EHenCg5GDuktwgVY-38" value="Language Model" style="shape=cylinder3;whiteSpace=wrap;html=1;boundedLbl=1;backgroundOutline=1;size=15;" parent="1" vertex="1">
                    <mxGeometry x="340" y="220" width="60" height="80" as="geometry"/>
                </mxCell>
                <mxCell id="v1f8EHenCg5GDuktwgVY-39" value="" style="endArrow=classic;html=1;rounded=0;exitX=0.5;exitY=1;exitDx=0;exitDy=0;exitPerimeter=0;entryX=0.5;entryY=0;entryDx=0;entryDy=0;" parent="1" source="v1f8EHenCg5GDuktwgVY-38" target="v1f8EHenCg5GDuktwgVY-6" edge="1">
                    <mxGeometry width="50" height="50" relative="1" as="geometry">
                        <mxPoint x="180" y="440" as="sourcePoint"/>
                        <mxPoint x="230" y="390" as="targetPoint"/>
                    </mxGeometry>
                </mxCell>
                <mxCell id="v1f8EHenCg5GDuktwgVY-41" value="" style="curved=1;endArrow=classic;html=1;rounded=0;exitX=0;exitY=0.5;exitDx=0;exitDy=0;entryX=0;entryY=0;entryDx=0;entryDy=15;entryPerimeter=0;dashed=1;" parent="1" source="v1f8EHenCg5GDuktwgVY-18" target="v1f8EHenCg5GDuktwgVY-38" edge="1">
                    <mxGeometry width="50" height="50" relative="1" as="geometry">
                        <mxPoint x="180" y="440" as="sourcePoint"/>
                        <mxPoint x="230" y="390" as="targetPoint"/>
                        <Array as="points">
                            <mxPoint x="-10" y="740"/>
                            <mxPoint x="-130" y="235"/>
                        </Array>
                    </mxGeometry>
                </mxCell>
                <mxCell id="v1f8EHenCg5GDuktwgVY-42" value="Create / fine-tune language model &lt;br&gt;(optional)" style="edgeLabel;html=1;align=center;verticalAlign=middle;resizable=0;points=[];" parent="v1f8EHenCg5GDuktwgVY-41" vertex="1" connectable="0">
                    <mxGeometry x="0.4033" y="-61" relative="1" as="geometry">
                        <mxPoint as="offset"/>
                    </mxGeometry>
                </mxCell>
                <mxCell id="2" value="Input Data" style="shape=datastore;whiteSpace=wrap;html=1;" vertex="1" parent="1">
                    <mxGeometry x="120" y="847" width="60" height="60" as="geometry"/>
                </mxCell>
                <mxCell id="3" value="" style="endArrow=classic;html=1;exitX=0.5;exitY=0;exitDx=0;exitDy=0;entryX=0.5;entryY=1;entryDx=0;entryDy=0;" edge="1" parent="1" source="2" target="v1f8EHenCg5GDuktwgVY-18">
                    <mxGeometry width="50" height="50" relative="1" as="geometry">
                        <mxPoint x="300" y="640" as="sourcePoint"/>
                        <mxPoint x="350" y="590" as="targetPoint"/>
                    </mxGeometry>
                </mxCell>
                <mxCell id="4" value="" style="curved=1;endArrow=classic;html=1;exitX=1;exitY=0.75;exitDx=0;exitDy=0;entryX=0.5;entryY=1;entryDx=0;entryDy=0;" edge="1" parent="1" source="v1f8EHenCg5GDuktwgVY-18" target="v1f8EHenCg5GDuktwgVY-24">
                    <mxGeometry width="50" height="50" relative="1" as="geometry">
                        <mxPoint x="300" y="640" as="sourcePoint"/>
                        <mxPoint x="300" y="750" as="targetPoint"/>
                        <Array as="points">
                            <mxPoint x="260" y="820"/>
                        </Array>
                    </mxGeometry>
                </mxCell>
                <mxCell id="5" value="HuggingFace&lt;br&gt;Model Hub" style="shape=datastore;whiteSpace=wrap;html=1;" vertex="1" parent="1">
                    <mxGeometry x="410" y="90" width="80" height="60" as="geometry"/>
                </mxCell>
                <mxCell id="6" value="..." style="shape=datastore;whiteSpace=wrap;html=1;" vertex="1" parent="1">
                    <mxGeometry x="330" y="90" width="60" height="60" as="geometry"/>
                </mxCell>
                <mxCell id="7" value="" style="endArrow=classic;html=1;dashed=1;entryX=0.5;entryY=0;entryDx=0;entryDy=0;entryPerimeter=0;exitX=0.5;exitY=1;exitDx=0;exitDy=0;" edge="1" parent="1" source="6" target="v1f8EHenCg5GDuktwgVY-38">
                    <mxGeometry width="50" height="50" relative="1" as="geometry">
                        <mxPoint x="300" y="230" as="sourcePoint"/>
                        <mxPoint x="350" y="180" as="targetPoint"/>
                    </mxGeometry>
                </mxCell>
                <mxCell id="8" value="" style="endArrow=classic;html=1;dashed=1;entryX=0.5;entryY=0;entryDx=0;entryDy=0;entryPerimeter=0;exitX=0.5;exitY=1;exitDx=0;exitDy=0;" edge="1" parent="1" source="5" target="v1f8EHenCg5GDuktwgVY-38">
                    <mxGeometry width="50" height="50" relative="1" as="geometry">
                        <mxPoint x="370" y="160" as="sourcePoint"/>
                        <mxPoint x="380" y="230" as="targetPoint"/>
                    </mxGeometry>
                </mxCell>
            </root>
        </mxGraphModel>
    </diagram>
</mxfile>